<svg width="735" height="673" viewBox="0 0 735 673" fill="none" xmlns="http://www.w3.org/2000/svg">
<g clip-path="url(#clip0_410_1872)">
<mask id="mask0_410_1872" style="mask-type:alpha" maskUnits="userSpaceOnUse" x="0" y="0" width="734" height="673">
<path d="M733.713 0H0.712891V673H733.713V0Z" fill="url(#paint0_radial_410_1872)"/>
</mask>
<g mask="url(#mask0_410_1872)">
<path d="M73.7129 0H-11.2871V85H73.7129V0Z" fill="#0F172A"/>
<path d="M73.2129 0.5H-10.7871V84.5H73.2129V0.5Z" stroke="#00DC82" stroke-opacity="0.1"/>
<path d="M157.713 0H72.7129V85H157.713V0Z" fill="#00DC82" fill-opacity="0.1"/>
<path d="M157.213 0.5H73.2129V84.5H157.213V0.5Z" stroke="#00DC82" stroke-opacity="0.1"/>
<path d="M241.713 0H156.713V85H241.713V0Z" fill="#0F172A"/>
<path d="M241.213 0.5H157.213V84.5H241.213V0.5Z" stroke="#00DC82" stroke-opacity="0.1"/>
<path d="M325.713 0H240.713V85H325.713V0Z" fill="#0F172A"/>
<path d="M325.213 0.5H241.213V84.5H325.213V0.5Z" stroke="#00DC82" stroke-opacity="0.1"/>
<path d="M409.713 0H324.713V85H409.713V0Z" fill="#0F172A"/>
<path d="M409.213 0.5H325.213V84.5H409.213V0.5Z" stroke="#00DC82" stroke-opacity="0.1"/>
<path d="M493.713 0H408.713V85H493.713V0Z" fill="#00DC82" fill-opacity="0.1"/>
<path d="M493.213 0.5H409.213V84.5H493.213V0.5Z" stroke="#00DC82" stroke-opacity="0.1"/>
<path d="M577.713 0H492.713V85H577.713V0Z" fill="#0F172A"/>
<path d="M577.213 0.5H493.213V84.5H577.213V0.5Z" stroke="#00DC82" stroke-opacity="0.1"/>
<path d="M661.713 0H576.713V85H661.713V0Z" fill="#0F172A"/>
<path d="M661.213 0.5H577.213V84.5H661.213V0.5Z" stroke="#00DC82" stroke-opacity="0.1"/>
<path d="M745.713 0H660.713V85H745.713V0Z" fill="#0F172A"/>
<path d="M745.213 0.5H661.213V84.5H745.213V0.5Z" stroke="#00DC82" stroke-opacity="0.1"/>
<path d="M73.7129 84H-11.2871V169H73.7129V84Z" fill="#00DC82" fill-opacity="0.1"/>
<path d="M73.2129 84.5H-10.7871V168.5H73.2129V84.5Z" stroke="#00DC82" stroke-opacity="0.1"/>
<path d="M157.713 84H72.7129V169H157.713V84Z" fill="#0F172A"/>
<path d="M157.213 84.5H73.2129V168.5H157.213V84.5Z" stroke="#00DC82" stroke-opacity="0.1"/>
<path d="M241.713 84H156.713V169H241.713V84Z" fill="#0F172A"/>
<path d="M241.213 84.5H157.213V168.5H241.213V84.5Z" stroke="#00DC82" stroke-opacity="0.1"/>
<path d="M325.713 84H240.713V169H325.713V84Z" fill="#0F172A"/>
<path d="M325.213 84.5H241.213V168.5H325.213V84.5Z" stroke="#00DC82" stroke-opacity="0.1"/>
<path d="M409.713 84H324.713V169H409.713V84Z" fill="#0F172A"/>
<path d="M409.213 84.5H325.213V168.5H409.213V84.5Z" stroke="#00DC82" stroke-opacity="0.1"/>
<path d="M493.713 84H408.713V169H493.713V84Z" fill="#0F172A"/>
<path d="M493.213 84.5H409.213V168.5H493.213V84.5Z" stroke="#00DC82" stroke-opacity="0.1"/>
<path d="M577.713 84H492.713V169H577.713V84Z" fill="#0F172A"/>
<path d="M577.213 84.5H493.213V168.5H577.213V84.5Z" stroke="#00DC82" stroke-opacity="0.1"/>
<path d="M661.713 84H576.713V169H661.713V84Z" fill="#0F172A"/>
<path d="M661.213 84.5H577.213V168.5H661.213V84.5Z" stroke="#00DC82" stroke-opacity="0.1"/>
<path d="M745.713 84H660.713V169H745.713V84Z" fill="#0F172A"/>
<path d="M745.213 84.5H661.213V168.5H745.213V84.5Z" stroke="#00DC82" stroke-opacity="0.1"/>
<path d="M73.7129 168H-11.2871V253H73.7129V168Z" fill="#0F172A"/>
<path d="M73.2129 168.5H-10.7871V252.5H73.2129V168.5Z" stroke="#00DC82" stroke-opacity="0.1"/>
<path d="M157.713 168H72.7129V253H157.713V168Z" fill="#0F172A"/>
<path d="M157.213 168.5H73.2129V252.5H157.213V168.5Z" stroke="#00DC82" stroke-opacity="0.1"/>
<path d="M241.713 168H156.713V253H241.713V168Z" fill="#0F172A"/>
<path d="M241.213 168.5H157.213V252.5H241.213V168.5Z" stroke="#00DC82" stroke-opacity="0.1"/>
<path d="M325.713 168H240.713V253H325.713V168Z" fill="#0F172A"/>
<path d="M325.213 168.5H241.213V252.5H325.213V168.5Z" stroke="#00DC82" stroke-opacity="0.1"/>
<path d="M409.713 168H324.713V253H409.713V168Z" fill="#0F172A"/>
<path d="M409.213 168.5H325.213V252.5H409.213V168.5Z" stroke="#00DC82" stroke-opacity="0.1"/>
<path d="M493.713 168H408.713V253H493.713V168Z" fill="#0F172A"/>
<path d="M493.213 168.5H409.213V252.5H493.213V168.5Z" stroke="#00DC82" stroke-opacity="0.1"/>
<path d="M577.713 168H492.713V253H577.713V168Z" fill="#0F172A"/>
<path d="M577.213 168.5H493.213V252.5H577.213V168.5Z" stroke="#00DC82" stroke-opacity="0.1"/>
<path d="M661.713 168H576.713V253H661.713V168Z" fill="#0F172A"/>
<path d="M661.213 168.5H577.213V252.5H661.213V168.5Z" stroke="#00DC82" stroke-opacity="0.1"/>
<path d="M745.713 168H660.713V253H745.713V168Z" fill="#00DC82" fill-opacity="0.1"/>
<path d="M745.213 168.5H661.213V252.5H745.213V168.5Z" stroke="#00DC82" stroke-opacity="0.1"/>
<path d="M73.7129 252H-11.2871V337H73.7129V252Z" fill="#0F172A"/>
<path d="M73.2129 252.5H-10.7871V336.5H73.2129V252.5Z" stroke="#00DC82" stroke-opacity="0.1"/>
<path d="M157.713 252H72.7129V337H157.713V252Z" fill="#0F172A"/>
<path d="M157.213 252.5H73.2129V336.5H157.213V252.5Z" stroke="#00DC82" stroke-opacity="0.1"/>
<path d="M241.713 252H156.713V337H241.713V252Z" fill="#0F172A"/>
<path d="M241.213 252.5H157.213V336.5H241.213V252.5Z" stroke="#00DC82" stroke-opacity="0.1"/>
<path d="M325.713 252H240.713V337H325.713V252Z" fill="#0F172A"/>
<path d="M325.213 252.5H241.213V336.5H325.213V252.5Z" stroke="#00DC82" stroke-opacity="0.1"/>
<path d="M409.713 252H324.713V337H409.713V252Z" fill="#0F172A"/>
<path d="M409.213 252.5H325.213V336.5H409.213V252.5Z" stroke="#00DC82" stroke-opacity="0.1"/>
<path d="M493.713 252H408.713V337H493.713V252Z" fill="#0F172A"/>
<path d="M493.213 252.5H409.213V336.5H493.213V252.5Z" stroke="#00DC82" stroke-opacity="0.1"/>
<path d="M577.713 252H492.713V337H577.713V252Z" fill="#0F172A"/>
<path d="M577.213 252.5H493.213V336.5H577.213V252.5Z" stroke="#00DC82" stroke-opacity="0.1"/>
<path d="M661.713 252H576.713V337H661.713V252Z" fill="#0F172A"/>
<path d="M661.213 252.5H577.213V336.5H661.213V252.5Z" stroke="#00DC82" stroke-opacity="0.1"/>
<path d="M745.713 252H660.713V337H745.713V252Z" fill="#0F172A"/>
<path d="M745.213 252.5H661.213V336.5H745.213V252.5Z" stroke="#00DC82" stroke-opacity="0.1"/>
<path d="M73.7129 336H-11.2871V421H73.7129V336Z" fill="#0F172A"/>
<path d="M73.2129 336.5H-10.7871V420.5H73.2129V336.5Z" stroke="#00DC82" stroke-opacity="0.1"/>
<path d="M157.713 336H72.7129V421H157.713V336Z" fill="#0F172A"/>
<path d="M157.213 336.5H73.2129V420.5H157.213V336.5Z" stroke="#00DC82" stroke-opacity="0.1"/>
<path d="M241.713 336H156.713V421H241.713V336Z" fill="#00DC82" fill-opacity="0.1"/>
<path d="M241.213 336.5H157.213V420.5H241.213V336.5Z" stroke="#00DC82" stroke-opacity="0.1"/>
<path d="M325.713 336H240.713V421H325.713V336Z" fill="#0F172A"/>
<path d="M325.213 336.5H241.213V420.5H325.213V336.5Z" stroke="#00DC82" stroke-opacity="0.1"/>
<path d="M409.713 336H324.713V421H409.713V336Z" fill="#0F172A"/>
<path d="M409.213 336.5H325.213V420.5H409.213V336.5Z" stroke="#00DC82" stroke-opacity="0.1"/>
<path d="M493.713 336H408.713V421H493.713V336Z" fill="#0F172A"/>
<path d="M493.213 336.5H409.213V420.5H493.213V336.5Z" stroke="#00DC82" stroke-opacity="0.1"/>
<path d="M577.713 336H492.713V421H577.713V336Z" fill="#0F172A"/>
<path d="M577.213 336.5H493.213V420.5H577.213V336.5Z" stroke="#00DC82" stroke-opacity="0.1"/>
<path d="M661.713 336H576.713V421H661.713V336Z" fill="#00DC82" fill-opacity="0.1"/>
<path d="M661.213 336.5H577.213V420.5H661.213V336.5Z" stroke="#00DC82" stroke-opacity="0.1"/>
<path d="M745.713 336H660.713V421H745.713V336Z" fill="#0F172A"/>
<path d="M745.213 336.5H661.213V420.5H745.213V336.5Z" stroke="#00DC82" stroke-opacity="0.1"/>
<path d="M73.7129 420H-11.2871V505H73.7129V420Z" fill="#0F172A"/>
<path d="M73.2129 420.5H-10.7871V504.5H73.2129V420.5Z" stroke="#00DC82" stroke-opacity="0.1"/>
<path d="M157.713 420H72.7129V505H157.713V420Z" fill="#0F172A"/>
<path d="M157.213 420.5H73.2129V504.5H157.213V420.5Z" stroke="#00DC82" stroke-opacity="0.1"/>
<path d="M241.713 420H156.713V505H241.713V420Z" fill="#0F172A"/>
<path d="M241.213 420.5H157.213V504.5H241.213V420.5Z" stroke="#00DC82" stroke-opacity="0.1"/>
<path d="M325.713 420H240.713V505H325.713V420Z" fill="#0F172A"/>
<path d="M325.213 420.5H241.213V504.5H325.213V420.5Z" stroke="#00DC82" stroke-opacity="0.1"/>
<path d="M409.713 420H324.713V505H409.713V420Z" fill="#0F172A"/>
<path d="M409.213 420.5H325.213V504.5H409.213V420.5Z" stroke="#00DC82" stroke-opacity="0.1"/>
<path d="M493.713 420H408.713V505H493.713V420Z" fill="#0F172A"/>
<path d="M493.213 420.5H409.213V504.5H493.213V420.5Z" stroke="#00DC82" stroke-opacity="0.1"/>
<path d="M577.713 420H492.713V505H577.713V420Z" fill="#0F172A"/>
<path d="M577.213 420.5H493.213V504.5H577.213V420.5Z" stroke="#00DC82" stroke-opacity="0.1"/>
<path d="M661.713 420H576.713V505H661.713V420Z" fill="#0F172A"/>
<path d="M661.213 420.5H577.213V504.5H661.213V420.5Z" stroke="#00DC82" stroke-opacity="0.1"/>
<path d="M745.713 420H660.713V505H745.713V420Z" fill="#0F172A"/>
<path d="M745.213 420.5H661.213V504.5H745.213V420.5Z" stroke="#00DC82" stroke-opacity="0.1"/>
<path d="M73.7129 504H-11.2871V589H73.7129V504Z" fill="#0F172A"/>
<path d="M73.2129 504.5H-10.7871V588.5H73.2129V504.5Z" stroke="#00DC82" stroke-opacity="0.1"/>
<path d="M157.713 504H72.7129V589H157.713V504Z" fill="#0F172A"/>
<path d="M157.213 504.5H73.2129V588.5H157.213V504.5Z" stroke="#00DC82" stroke-opacity="0.1"/>
<path d="M241.713 504H156.713V589H241.713V504Z" fill="#0F172A"/>
<path d="M241.213 504.5H157.213V588.5H241.213V504.5Z" stroke="#00DC82" stroke-opacity="0.1"/>
<path d="M325.713 504H240.713V589H325.713V504Z" fill="#0F172A"/>
<path d="M325.213 504.5H241.213V588.5H325.213V504.5Z" stroke="#00DC82" stroke-opacity="0.1"/>
<path d="M409.713 504H324.713V589H409.713V504Z" fill="#0F172A"/>
<path d="M409.213 504.5H325.213V588.5H409.213V504.5Z" stroke="#00DC82" stroke-opacity="0.1"/>
<path d="M493.713 504H408.713V589H493.713V504Z" fill="#0F172A"/>
<path d="M493.213 504.5H409.213V588.5H493.213V504.5Z" stroke="#00DC82" stroke-opacity="0.1"/>
<path d="M577.713 504H492.713V589H577.713V504Z" fill="#0F172A"/>
<path d="M577.213 504.5H493.213V588.5H577.213V504.5Z" stroke="#00DC82" stroke-opacity="0.1"/>
<path d="M661.713 504H576.713V589H661.713V504Z" fill="#0F172A"/>
<path d="M661.213 504.5H577.213V588.5H661.213V504.5Z" stroke="#00DC82" stroke-opacity="0.1"/>
<path d="M745.713 504H660.713V589H745.713V504Z" fill="#0F172A"/>
<path d="M745.213 504.5H661.213V588.5H745.213V504.5Z" stroke="#00DC82" stroke-opacity="0.1"/>
<path d="M73.7129 588H-11.2871V673H73.7129V588Z" fill="#0F172A"/>
<path d="M73.2129 588.5H-10.7871V672.5H73.2129V588.5Z" stroke="#00DC82" stroke-opacity="0.1"/>
<path d="M157.713 588H72.7129V673H157.713V588Z" fill="#0F172A"/>
<path d="M157.213 588.5H73.2129V672.5H157.213V588.5Z" stroke="#00DC82" stroke-opacity="0.1"/>
<path d="M241.713 588H156.713V673H241.713V588Z" fill="#0F172A"/>
<path d="M241.213 588.5H157.213V672.5H241.213V588.5Z" stroke="#00DC82" stroke-opacity="0.1"/>
<path d="M325.713 588H240.713V673H325.713V588Z" fill="#0F172A"/>
<path d="M325.213 588.5H241.213V672.5H325.213V588.5Z" stroke="#00DC82" stroke-opacity="0.1"/>
<path d="M409.713 588H324.713V673H409.713V588Z" fill="#0F172A"/>
<path d="M409.213 588.5H325.213V672.5H409.213V588.5Z" stroke="#00DC82" stroke-opacity="0.1"/>
<path d="M493.713 588H408.713V673H493.713V588Z" fill="#0F172A"/>
<path d="M493.213 588.5H409.213V672.5H493.213V588.5Z" stroke="#00DC82" stroke-opacity="0.1"/>
<path d="M577.713 588H492.713V673H577.713V588Z" fill="#0F172A"/>
<path d="M577.213 588.5H493.213V672.5H577.213V588.5Z" stroke="#00DC82" stroke-opacity="0.1"/>
<path d="M661.713 588H576.713V673H661.713V588Z" fill="#0F172A"/>
<path d="M661.213 588.5H577.213V672.5H661.213V588.5Z" stroke="#00DC82" stroke-opacity="0.1"/>
<path d="M745.713 588H660.713V673H745.713V588Z" fill="#0F172A"/>
<path d="M745.213 588.5H661.213V672.5H745.213V588.5Z" stroke="#00DC82" stroke-opacity="0.1"/>
</g>
</g>
<defs>
<radialGradient id="paint0_radial_410_1872" cx="0" cy="0" r="1" gradientUnits="userSpaceOnUse" gradientTransform="translate(367.213 336.5) rotate(90) scale(336.5 366.5)">
<stop stop-color="#2563EB"/>
<stop offset="1" stop-color="white" stop-opacity="0"/>
</radialGradient>
<clipPath id="clip0_410_1872">
<rect width="734" height="673" fill="white" transform="translate(0.212891)"/>
</clipPath>
</defs>
</svg>
