<svg width="733" height="614" viewBox="0 0 733 614" fill="none" xmlns="http://www.w3.org/2000/svg">
<g clip-path="url(#clip0_410_1497)">
<mask id="mask0_410_1497" style="mask-type:alpha" maskUnits="userSpaceOnUse" x="0" y="0" width="733" height="673">
<path d="M733 0H0V673H733V0Z" fill="url(#paint0_radial_410_1497)"/>
</mask>
<g mask="url(#mask0_410_1497)">
<path d="M72.5 0.5H-11.5V84.5H72.5V0.5Z" fill="white" stroke="#E3FCF2"/>
<path d="M156.5 0.5H72.5V84.5H156.5V0.5Z" fill="#E3FCF2" stroke="#E3FCF2"/>
<path d="M240.5 0.5H156.5V84.5H240.5V0.5Z" fill="white" stroke="#E3FCF2"/>
<path d="M324.5 0.5H240.5V84.5H324.5V0.5Z" fill="white" stroke="#E3FCF2"/>
<path d="M408.5 0.5H324.5V84.5H408.5V0.5Z" fill="white" stroke="#E3FCF2"/>
<path d="M492.5 0.5H408.5V84.5H492.5V0.5Z" fill="#E3FCF2" stroke="#E3FCF2"/>
<path d="M576.5 0.5H492.5V84.5H576.5V0.5Z" fill="white" stroke="#E3FCF2"/>
<path d="M660.5 0.5H576.5V84.5H660.5V0.5Z" fill="white" stroke="#E3FCF2"/>
<path d="M744.5 0.5H660.5V84.5H744.5V0.5Z" fill="white" stroke="#E3FCF2"/>
<path d="M72.5 84.5H-11.5V168.5H72.5V84.5Z" fill="#E3FCF2" stroke="#E3FCF2"/>
<path d="M156.5 84.5H72.5V168.5H156.5V84.5Z" fill="white" stroke="#E3FCF2"/>
<path d="M240.5 84.5H156.5V168.5H240.5V84.5Z" fill="white" stroke="#E3FCF2"/>
<path d="M324.5 84.5H240.5V168.5H324.5V84.5Z" fill="white" stroke="#E3FCF2"/>
<path d="M408.5 84.5H324.5V168.5H408.5V84.5Z" fill="white" stroke="#E3FCF2"/>
<path d="M492.5 84.5H408.5V168.5H492.5V84.5Z" fill="white" stroke="#E3FCF2"/>
<path d="M576.5 84.5H492.5V168.5H576.5V84.5Z" fill="white" stroke="#E3FCF2"/>
<path d="M660.5 84.5H576.5V168.5H660.5V84.5Z" fill="white" stroke="#E3FCF2"/>
<path d="M744.5 84.5H660.5V168.5H744.5V84.5Z" fill="white" stroke="#E3FCF2"/>
<path d="M72.5 168.5H-11.5V252.5H72.5V168.5Z" fill="white" stroke="#E3FCF2"/>
<path d="M156.5 168.5H72.5V252.5H156.5V168.5Z" fill="white" stroke="#E3FCF2"/>
<path d="M240.5 168.5H156.5V252.5H240.5V168.5Z" fill="white" stroke="#E3FCF2"/>
<path d="M324.5 168.5H240.5V252.5H324.5V168.5Z" fill="white" stroke="#E3FCF2"/>
<path d="M408.5 168.5H324.5V252.5H408.5V168.5Z" fill="white" stroke="#E3FCF2"/>
<path d="M492.5 168.5H408.5V252.5H492.5V168.5Z" fill="white" stroke="#E3FCF2"/>
<path d="M576.5 168.5H492.5V252.5H576.5V168.5Z" fill="white" stroke="#E3FCF2"/>
<path d="M660.5 168.5H576.5V252.5H660.5V168.5Z" fill="white" stroke="#E3FCF2"/>
<path d="M744.5 168.5H660.5V252.5H744.5V168.5Z" fill="#E3FCF2" stroke="#E3FCF2"/>
<path d="M72.5 252.5H-11.5V336.5H72.5V252.5Z" fill="white" stroke="#E3FCF2"/>
<path d="M156.5 252.5H72.5V336.5H156.5V252.5Z" fill="white" stroke="#E3FCF2"/>
<path d="M240.5 252.5H156.5V336.5H240.5V252.5Z" fill="white" stroke="#E3FCF2"/>
<path d="M324.5 252.5H240.5V336.5H324.5V252.5Z" fill="white" stroke="#E3FCF2"/>
<path d="M408.5 252.5H324.5V336.5H408.5V252.5Z" fill="white" stroke="#E3FCF2"/>
<path d="M492.5 252.5H408.5V336.5H492.5V252.5Z" fill="white" stroke="#E3FCF2"/>
<path d="M576.5 252.5H492.5V336.5H576.5V252.5Z" fill="white" stroke="#E3FCF2"/>
<path d="M660.5 252.5H576.5V336.5H660.5V252.5Z" fill="white" stroke="#E3FCF2"/>
<path d="M744.5 252.5H660.5V336.5H744.5V252.5Z" fill="white" stroke="#E3FCF2"/>
<path d="M72.5 336.5H-11.5V420.5H72.5V336.5Z" fill="white" stroke="#E3FCF2"/>
<path d="M156.5 336.5H72.5V420.5H156.5V336.5Z" fill="white" stroke="#E3FCF2"/>
<path d="M240.5 336.5H156.5V420.5H240.5V336.5Z" fill="#E3FCF2" stroke="#E3FCF2"/>
<path d="M324.5 336.5H240.5V420.5H324.5V336.5Z" fill="white" stroke="#E3FCF2"/>
<path d="M408.5 336.5H324.5V420.5H408.5V336.5Z" fill="white" stroke="#E3FCF2"/>
<path d="M492.5 336.5H408.5V420.5H492.5V336.5Z" fill="white" stroke="#E3FCF2"/>
<path d="M576.5 336.5H492.5V420.5H576.5V336.5Z" fill="white" stroke="#E3FCF2"/>
<path d="M660.5 336.5H576.5V420.5H660.5V336.5Z" fill="#E3FCF2" stroke="#E3FCF2"/>
<path d="M744.5 336.5H660.5V420.5H744.5V336.5Z" fill="white" stroke="#E3FCF2"/>
<path d="M72.5 420.5H-11.5V504.5H72.5V420.5Z" fill="white" stroke="#E3FCF2"/>
<path d="M156.5 420.5H72.5V504.5H156.5V420.5Z" fill="white" stroke="#E3FCF2"/>
<path d="M240.5 420.5H156.5V504.5H240.5V420.5Z" fill="white" stroke="#E3FCF2"/>
<path d="M324.5 420.5H240.5V504.5H324.5V420.5Z" fill="white" stroke="#E3FCF2"/>
<path d="M408.5 420.5H324.5V504.5H408.5V420.5Z" fill="white" stroke="#E3FCF2"/>
<path d="M492.5 420.5H408.5V504.5H492.5V420.5Z" fill="white" stroke="#E3FCF2"/>
<path d="M576.5 420.5H492.5V504.5H576.5V420.5Z" fill="white" stroke="#E3FCF2"/>
<path d="M660.5 420.5H576.5V504.5H660.5V420.5Z" fill="white" stroke="#E3FCF2"/>
<path d="M744.5 420.5H660.5V504.5H744.5V420.5Z" fill="white" stroke="#E3FCF2"/>
<path d="M72.5 504.5H-11.5V588.5H72.5V504.5Z" fill="white" stroke="#E3FCF2"/>
<path d="M156.5 504.5H72.5V588.5H156.5V504.5Z" fill="white" stroke="#E3FCF2"/>
<path d="M240.5 504.5H156.5V588.5H240.5V504.5Z" fill="white" stroke="#E3FCF2"/>
<path d="M324.5 504.5H240.5V588.5H324.5V504.5Z" fill="white" stroke="#E3FCF2"/>
<path d="M408.5 504.5H324.5V588.5H408.5V504.5Z" fill="white" stroke="#E3FCF2"/>
<path d="M492.5 504.5H408.5V588.5H492.5V504.5Z" fill="white" stroke="#E3FCF2"/>
<path d="M576.5 504.5H492.5V588.5H576.5V504.5Z" fill="white" stroke="#E3FCF2"/>
<path d="M660.5 504.5H576.5V588.5H660.5V504.5Z" fill="white" stroke="#E3FCF2"/>
<path d="M744.5 504.5H660.5V588.5H744.5V504.5Z" fill="white" stroke="#E3FCF2"/>
<path d="M72.5 588.5H-11.5V672.5H72.5V588.5Z" fill="white" stroke="#E3FCF2"/>
<path d="M156.5 588.5H72.5V672.5H156.5V588.5Z" fill="white" stroke="#E3FCF2"/>
<path d="M240.5 588.5H156.5V672.5H240.5V588.5Z" fill="white" stroke="#E3FCF2"/>
<path d="M324.5 588.5H240.5V672.5H324.5V588.5Z" fill="white" stroke="#E3FCF2"/>
<path d="M408.5 588.5H324.5V672.5H408.5V588.5Z" fill="white" stroke="#E3FCF2"/>
<path d="M492.5 588.5H408.5V672.5H492.5V588.5Z" fill="white" stroke="#E3FCF2"/>
<path d="M576.5 588.5H492.5V672.5H576.5V588.5Z" fill="white" stroke="#E3FCF2"/>
<path d="M660.5 588.5H576.5V672.5H660.5V588.5Z" fill="white" stroke="#E3FCF2"/>
<path d="M744.5 588.5H660.5V672.5H744.5V588.5Z" fill="white" stroke="#E3FCF2"/>
</g>
</g>
<defs>
<radialGradient id="paint0_radial_410_1497" cx="0" cy="0" r="1" gradientUnits="userSpaceOnUse" gradientTransform="translate(366.5 336.5) rotate(90) scale(336.5 366.5)">
<stop stop-color="#2563EB"/>
<stop offset="1" stop-color="white" stop-opacity="0"/>
</radialGradient>
<clipPath id="clip0_410_1497">
<rect width="733" height="614" fill="white"/>
</clipPath>
</defs>
</svg>
